<svg id="svg" version="1.1" xmlns="http://www.w3.org/2000/svg" xmlns:xlink="http://www.w3.org/1999/xlink" width="400" height="400" viewBox="0, 0, 400,400"><g id="svgg"><path id="path0" d="M191.992 110.782 C 172.208 118.864,161.552 123.392,122.461 140.326 C 114.297 143.863,106.330 147.256,104.758 147.865 C 100.350 149.573,100.752 144.811,100.872 193.841 L 100.977 236.523 101.863 238.183 C 103.560 241.360,104.274 241.600,117.801 243.546 C 166.420 250.541,198.753 255.239,206.250 256.397 C 217.754 258.174,239.051 260.524,244.084 260.572 C 247.698 260.606,246.189 261.098,240.430 261.763 C 234.451 262.454,210.364 262.471,203.711 261.789 C 195.594 260.957,140.012 253.996,122.070 251.565 C 99.431 248.497,100.391 248.598,100.391 249.284 C 100.391 251.382,103.788 254.728,107.822 256.604 C 110.388 257.797,173.413 273.928,178.320 274.648 C 180.676 274.993,290.187 275.178,290.528 274.837 C 291.879 273.485,283.002 266.600,273.374 261.531 C 262.956 256.046,262.893 255.489,271.828 247.724 C 283.327 237.732,291.977 225.112,289.431 222.044 C 286.371 218.356,269.972 217.431,248.828 219.752 C 233.674 221.415,219.474 225.085,204.785 231.133 C 204.399 231.292,204.297 227.729,204.297 214.078 C 204.297 197.831,204.337 196.834,204.980 197.016 C 205.356 197.122,210.718 197.874,216.895 198.686 L 228.125 200.163 228.125 209.287 C 228.125 217.791,228.172 218.399,228.809 218.217 C 229.185 218.110,230.898 217.732,232.617 217.376 C 234.336 217.021,236.050 216.645,236.426 216.542 C 237.046 216.371,237.109 215.667,237.109 208.913 L 237.109 201.472 239.160 201.738 C 240.288 201.885,244.155 202.398,247.754 202.879 L 254.297 203.753 254.297 199.746 L 254.297 195.739 253.027 195.518 C 252.329 195.397,248.857 194.860,245.313 194.326 C 241.768 193.792,238.472 193.265,237.988 193.154 L 237.109 192.954 237.109 183.782 C 237.109 178.737,237.263 174.609,237.450 174.609 C 237.637 174.609,241.370 175.400,245.746 176.367 C 250.122 177.334,253.842 178.125,254.013 178.125 C 254.184 178.125,254.274 176.333,254.213 174.143 L 254.102 170.161 245.605 168.041 L 237.109 165.922 237.109 157.961 C 237.109 153.582,237.185 150.000,237.276 150.000 C 237.368 150.000,239.873 150.763,242.843 151.695 C 245.812 152.628,251.011 154.248,254.395 155.296 L 260.547 157.201 260.547 184.851 L 260.547 212.500 263.224 212.500 C 264.696 212.500,267.010 212.616,268.365 212.757 L 270.828 213.015 270.553 176.722 C 270.242 135.815,270.439 138.217,267.238 136.137 C 266.458 135.630,255.889 131.154,243.750 126.190 C 231.611 121.226,216.929 115.148,211.124 112.684 C 198.744 107.429,199.916 107.546,191.992 110.782 M192.698 125.017 C 192.267 125.421,181.316 129.927,165.586 136.171 C 158.367 139.037,150.281 142.371,147.617 143.580 C 142.333 145.978,138.960 147.356,122.406 153.875 C 109.579 158.926,110.938 158.611,110.938 156.535 L 110.938 154.866 121.582 150.614 C 127.437 148.275,136.182 144.610,141.016 142.469 C 145.850 140.328,154.463 136.680,160.156 134.361 C 165.850 132.043,175.518 128.040,181.641 125.466 L 192.773 120.786 192.893 122.753 C 192.959 123.836,192.872 124.854,192.698 125.017 M213.354 123.874 C 222.028 127.029,231.879 130.788,250.684 138.118 L 260.547 141.963 260.547 145.163 L 260.547 148.363 255.957 146.606 C 253.433 145.640,246.445 142.918,240.430 140.558 C 234.414 138.198,224.219 134.255,217.773 131.795 C 211.328 129.335,205.659 127.155,205.176 126.951 C 204.379 126.614,203.709 120.703,204.467 120.703 C 204.561 120.703,208.560 122.130,213.354 123.874 M215.262 142.937 C 220.940 144.854,226.150 146.626,226.840 146.876 L 228.095 147.331 228.207 155.307 C 228.270 159.693,228.219 163.282,228.094 163.282 C 227.872 163.281,208.612 158.537,205.762 157.781 L 204.297 157.392 204.297 148.422 C 204.297 143.489,204.441 139.453,204.617 139.453 C 204.793 139.453,209.583 141.021,215.262 142.937 M188.672 188.335 L 188.672 236.045 186.035 235.790 C 184.585 235.649,182.388 235.427,181.152 235.295 L 178.906 235.055 178.906 189.675 L 178.906 144.294 183.301 142.477 C 185.718 141.478,187.915 140.652,188.184 140.643 C 188.572 140.629,188.672 150.418,188.672 188.335 M169.141 191.016 L 169.141 233.984 167.871 233.982 C 167.173 233.980,165.415 233.867,163.965 233.730 L 161.328 233.481 161.334 192.229 L 161.340 150.977 164.752 149.546 C 166.629 148.760,168.384 148.100,168.652 148.081 C 169.040 148.054,169.141 156.883,169.141 191.016 M151.266 193.750 L 151.164 232.422 150.094 232.419 C 149.505 232.418,147.837 232.304,146.387 232.167 L 143.750 231.918 143.750 194.906 L 143.750 157.894 147.168 156.505 C 149.048 155.741,150.762 155.107,150.977 155.097 C 151.235 155.084,151.333 168.152,151.266 193.750 M134.766 196.064 L 134.766 231.190 131.738 230.993 C 130.073 230.884,128.490 230.727,128.220 230.644 C 127.831 230.523,127.751 223.606,127.830 197.022 L 127.930 163.552 130.859 162.284 C 132.471 161.586,134.009 160.998,134.277 160.977 C 134.665 160.946,134.766 168.202,134.766 196.064 M216.894 169.945 L 228.125 172.461 228.125 182.092 C 228.125 191.063,228.078 191.713,227.441 191.570 C 227.065 191.486,222.855 190.806,218.085 190.059 C 213.315 189.312,208.261 188.501,206.854 188.256 L 204.297 187.810 204.297 177.453 C 204.297 167.787,204.342 167.107,204.980 167.263 C 205.356 167.355,210.718 168.562,216.894 169.945 M118.359 198.438 C 118.359 227.576,118.321 229.296,117.676 229.273 C 117.300 229.260,115.762 229.036,114.258 228.776 L 111.523 228.303 111.431 199.405 L 111.338 170.508 114.556 169.065 C 116.326 168.271,117.905 167.612,118.066 167.600 C 118.228 167.588,118.359 181.465,118.359 198.438 " stroke="none" fill="#e1929b" fill-rule="evenodd"></path><path id="path1" d="M0.000 200.000 L 0.000 400.000 200.000 400.000 L 400.000 400.000 400.000 200.000 L 400.000 0.000 200.000 0.000 L 0.000 0.000 0.000 200.000 M207.330 110.974 C 211.355 112.713,225.723 118.677,239.258 124.227 C 252.793 129.777,264.482 134.579,265.234 134.897 C 267.447 135.834,268.787 137.113,269.772 139.227 L 270.695 141.211 270.699 177.095 L 270.703 212.979 265.723 212.837 L 260.742 212.695 260.547 184.988 L 260.352 157.281 251.953 154.661 C 247.334 153.220,242.104 151.596,240.332 151.052 L 237.109 150.063 237.110 157.942 L 237.110 165.820 245.801 167.971 L 254.492 170.121 254.603 174.349 C 254.706 178.253,254.661 178.561,254.017 178.366 C 253.333 178.159,237.473 174.609,237.232 174.609 C 237.165 174.609,237.109 178.740,237.109 183.789 C 237.109 188.838,237.241 192.970,237.402 192.972 C 237.832 192.977,252.352 195.278,253.613 195.541 L 254.688 195.765 254.688 199.870 L 254.688 203.975 253.223 203.740 C 252.417 203.611,249.033 203.151,245.703 202.719 C 242.373 202.286,239.077 201.830,238.379 201.704 L 237.109 201.476 237.108 209.039 L 237.107 216.602 233.495 217.331 C 231.508 217.731,229.487 218.147,229.004 218.255 L 228.125 218.450 228.125 209.428 L 228.125 200.406 227.246 200.211 C 226.090 199.955,205.836 197.263,205.078 197.264 C 204.566 197.266,204.492 199.415,204.492 214.262 C 204.492 225.454,204.626 231.197,204.883 231.077 C 232.331 218.285,289.844 213.404,289.844 223.866 C 289.844 227.671,283.152 237.269,275.540 244.382 C 262.408 256.652,262.457 255.857,274.452 262.043 C 282.607 266.249,291.113 272.950,290.527 274.707 C 290.317 275.338,188.226 275.638,181.338 275.027 C 175.193 274.483,111.506 258.516,107.182 256.436 C 104.048 254.929,101.016 251.956,100.578 249.962 C 100.242 248.435,100.180 248.464,102.930 248.864 C 121.464 251.556,195.971 260.961,204.662 261.706 C 217.308 262.790,234.822 262.574,243.288 261.230 L 246.289 260.753 241.211 260.492 C 234.346 260.140,216.180 258.069,205.664 256.439 C 200.938 255.707,180.547 252.725,160.352 249.812 C 140.156 246.899,119.526 243.919,114.508 243.190 C 104.230 241.696,103.442 241.370,101.660 237.883 L 100.781 236.163 100.781 193.320 C 100.781 153.087,100.823 150.428,101.465 149.666 C 101.841 149.220,104.873 147.726,108.203 146.346 C 111.533 144.966,117.949 142.217,122.461 140.237 C 155.130 125.902,198.076 107.834,199.518 107.818 C 199.790 107.815,203.305 109.235,207.330 110.974 M184.342 124.396 C 176.564 127.725,157.577 135.599,152.875 137.447 C 151.770 137.881,147.200 139.862,142.718 141.850 C 138.237 143.838,129.297 147.596,122.852 150.202 L 111.133 154.939 111.010 156.623 C 110.918 157.892,111.014 158.254,111.401 158.097 C 112.560 157.624,133.241 149.486,136.133 148.365 C 137.852 147.698,143.037 145.488,147.656 143.454 C 152.275 141.420,157.373 139.268,158.984 138.673 C 162.228 137.474,182.186 129.438,188.770 126.680 L 192.969 124.921 192.969 122.812 C 192.969 121.652,192.925 120.722,192.871 120.746 C 192.817 120.770,188.979 122.412,184.342 124.396 M204.492 123.626 C 204.492 125.867,204.630 126.608,205.078 126.784 C 205.400 126.910,210.498 128.861,216.406 131.120 C 222.314 133.378,230.928 136.720,235.547 138.546 C 245.674 142.549,260.025 148.047,260.347 148.047 C 260.475 148.047,260.528 146.688,260.466 145.028 L 260.352 142.009 251.563 138.575 C 235.035 132.118,221.681 127.013,213.672 124.092 C 209.268 122.486,205.400 121.065,205.078 120.934 C 204.588 120.736,204.492 121.177,204.492 123.626 M204.492 148.423 L 204.492 157.401 215.820 160.164 C 222.051 161.683,227.368 163.001,227.637 163.092 C 228.017 163.220,228.125 161.492,228.125 155.294 L 228.125 147.331 216.699 143.530 C 210.415 141.439,205.098 139.665,204.883 139.587 C 204.630 139.494,204.492 142.603,204.492 148.423 M183.691 142.463 L 179.297 144.222 179.297 189.634 L 179.297 235.046 183.691 235.444 C 186.108 235.663,188.131 235.804,188.185 235.758 C 188.240 235.712,188.240 214.306,188.185 188.189 L 188.086 140.705 183.691 142.463 M165.039 149.609 L 161.523 151.028 161.523 192.213 L 161.523 233.398 165.009 233.689 C 166.927 233.848,168.553 233.921,168.624 233.850 C 168.695 233.779,168.709 214.476,168.654 190.956 L 168.555 148.191 165.039 149.609 M147.559 156.527 L 144.141 157.894 144.141 194.905 L 144.141 231.916 147.519 232.176 C 149.378 232.319,150.960 232.373,151.037 232.297 C 151.113 232.220,151.131 214.833,151.076 193.658 L 150.977 155.159 147.559 156.527 M131.154 162.245 L 128.128 163.477 128.126 196.924 L 128.125 230.371 129.346 230.615 C 130.017 230.750,131.423 230.859,132.471 230.859 L 134.375 230.859 134.375 195.898 C 134.375 176.670,134.331 160.955,134.277 160.976 C 134.224 160.997,132.818 161.568,131.154 162.245 M204.609 177.432 C 204.673 183.062,204.764 187.706,204.811 187.753 C 204.894 187.837,222.617 190.708,226.270 191.230 L 228.125 191.495 228.125 182.091 L 228.125 172.686 226.660 172.299 C 225.854 172.085,220.801 170.932,215.430 169.736 C 210.059 168.539,205.400 167.478,205.078 167.378 C 204.566 167.219,204.507 168.478,204.609 177.432 M114.551 169.169 L 111.328 170.693 111.328 199.409 C 111.328 215.203,111.372 228.125,111.426 228.126 C 111.479 228.126,113.018 228.389,114.844 228.711 C 116.670 229.033,118.208 229.296,118.262 229.296 C 118.315 229.297,118.359 215.410,118.359 198.438 C 118.359 181.465,118.228 167.593,118.066 167.612 C 117.905 167.630,116.323 168.331,114.551 169.169 " stroke="none" fill="#d8ecee" fill-rule="evenodd"></path><path id="path2" d="M204.422 123.438 C 204.422 124.834,204.493 125.405,204.579 124.707 C 204.666 124.009,204.666 122.866,204.579 122.168 C 204.493 121.470,204.422 122.041,204.422 123.438 M204.463 148.438 C 204.463 153.057,204.519 154.946,204.588 152.637 C 204.657 150.327,204.657 146.548,204.588 144.238 C 204.519 141.929,204.463 143.818,204.463 148.438 M188.470 188.281 C 188.470 214.600,188.517 225.366,188.574 212.207 C 188.631 199.048,188.631 177.515,188.574 164.355 C 188.517 151.196,188.470 161.963,188.470 188.281 M143.938 194.727 C 143.937 215.137,143.985 223.544,144.043 213.409 C 144.101 203.273,144.101 186.574,144.043 176.299 C 143.985 166.024,143.938 174.316,143.938 194.727 M127.906 176.758 C 127.906 182.773,127.961 185.180,128.027 182.105 C 128.093 179.031,128.093 174.109,128.026 171.168 C 127.960 168.227,127.906 170.742,127.906 176.758 M204.467 177.930 C 204.467 183.516,204.522 185.746,204.589 182.887 C 204.656 180.028,204.656 175.457,204.589 172.731 C 204.522 170.004,204.467 172.344,204.467 177.930 M127.879 191.797 C 127.879 194.053,127.943 194.976,128.022 193.848 C 128.101 192.720,128.101 190.874,128.022 189.746 C 127.943 188.618,127.879 189.541,127.879 191.797 M127.885 201.563 C 127.885 204.248,127.947 205.347,128.024 204.004 C 128.100 202.661,128.100 200.464,128.024 199.121 C 127.947 197.778,127.885 198.877,127.885 201.563 M204.476 214.063 C 204.476 223.193,204.527 226.929,204.589 222.363 C 204.652 217.798,204.652 210.327,204.589 205.762 C 204.527 201.196,204.476 204.932,204.476 214.063 M127.851 215.625 C 127.851 216.807,127.925 217.290,128.014 216.699 C 128.104 216.108,128.104 215.142,128.014 214.551 C 127.925 213.960,127.851 214.443,127.851 215.625 M127.841 223.438 C 127.841 224.404,127.917 224.800,128.010 224.316 C 128.103 223.833,128.103 223.042,128.010 222.559 C 127.917 222.075,127.841 222.471,127.841 223.438 " stroke="none" fill="#d29b96" fill-rule="evenodd"></path><path id="path3" d="M270.475 148.438 C 270.475 152.412,270.533 154.038,270.604 152.051 C 270.674 150.063,270.674 146.812,270.604 144.824 C 270.533 142.837,270.475 144.463,270.475 148.438 M254.438 174.219 C 254.438 176.260,254.504 177.095,254.584 176.074 C 254.664 175.054,254.664 173.384,254.584 172.363 C 254.504 171.343,254.438 172.178,254.438 174.219 M254.440 200.195 C 254.441 202.344,254.506 203.173,254.585 202.038 C 254.664 200.903,254.664 199.145,254.583 198.131 C 254.503 197.118,254.439 198.047,254.440 200.195 M127.863 227.539 C 127.864 229.043,127.935 229.610,128.019 228.800 C 128.104 227.989,128.103 226.759,128.016 226.066 C 127.930 225.372,127.861 226.035,127.863 227.539 " stroke="none" fill="#bf7d73" fill-rule="evenodd"></path><path id="path4" d="M179.095 189.648 C 179.095 214.785,179.142 225.011,179.199 212.372 C 179.256 199.734,179.256 179.167,179.199 166.669 C 179.142 154.171,179.095 164.512,179.095 189.648 M168.939 191.016 C 168.939 214.541,168.985 224.165,169.043 212.402 C 169.100 200.640,169.100 181.392,169.043 169.629 C 168.985 157.866,168.939 167.490,168.939 191.016 M270.470 162.891 C 270.470 166.221,270.530 167.583,270.603 165.918 C 270.676 164.253,270.676 161.528,270.603 159.863 C 270.530 158.198,270.470 159.561,270.470 162.891 M134.562 195.898 C 134.562 215.020,134.610 222.785,134.668 213.154 C 134.726 203.524,134.726 187.879,134.668 178.389 C 134.610 168.898,134.562 176.777,134.562 195.898 M213.574 275.293 C 227.163 275.350,249.399 275.350,262.988 275.293 C 276.577 275.236,265.459 275.189,238.281 275.189 C 211.104 275.189,199.985 275.236,213.574 275.293 " stroke="none" fill="#c27274" fill-rule="evenodd"></path></g></svg>