<svg id="svg" version="1.1" xmlns="http://www.w3.org/2000/svg" xmlns:xlink="http://www.w3.org/1999/xlink" width="400" height="400" viewBox="0, 0, 400,400"><g id="svgg"><path id="path0" d="M79.102 161.693 C 69.004 165.509,56.260 170.374,50.781 172.504 L 40.820 176.375 40.820 201.567 C 40.820 229.625,40.728 228.643,43.475 229.899 C 44.163 230.214,50.000 231.359,56.445 232.443 C 62.891 233.527,73.831 235.368,80.757 236.536 C 94.187 238.799,101.236 239.630,110.938 240.092 C 118.156 240.437,117.462 240.379,117.740 240.657 C 117.865 240.782,115.814 241.397,113.183 242.024 C 104.305 244.140,101.638 243.910,68.164 238.146 C 52.695 235.482,39.963 233.370,39.871 233.453 C 39.779 233.536,40.220 234.339,40.851 235.238 C 42.399 237.440,44.599 238.471,50.195 239.617 C 52.773 240.144,61.826 242.068,70.313 243.892 C 78.799 245.715,88.072 247.660,90.921 248.213 L 96.099 249.219 119.576 249.219 C 140.823 249.219,143.030 249.160,142.815 248.601 C 142.685 248.261,142.578 247.924,142.578 247.853 C 142.578 247.303,138.142 244.674,135.736 243.796 C 130.278 241.806,130.049 240.923,134.105 237.511 C 139.030 233.369,141.754 229.147,142.667 224.240 C 143.204 221.352,143.639 221.685,138.281 220.890 C 129.473 219.582,121.220 220.303,106.836 223.635 C 98.866 225.481,95.010 226.031,92.861 225.628 L 91.509 225.375 91.499 200.226 L 91.488 175.077 93.498 174.518 L 95.508 173.959 95.703 197.819 L 95.898 221.680 97.266 221.564 C 98.018 221.501,99.907 221.175,101.465 220.841 L 104.297 220.234 104.297 215.000 L 104.297 209.766 108.496 209.771 C 114.810 209.779,114.453 209.518,114.453 214.134 C 114.453 217.651,114.518 218.003,115.137 217.823 C 115.513 217.714,116.841 217.505,118.089 217.358 L 120.359 217.092 120.279 213.768 L 120.199 210.444 124.064 210.516 L 127.930 210.588 127.884 208.712 L 127.838 206.836 126.322 206.741 C 125.487 206.689,123.693 206.542,122.335 206.414 L 119.866 206.182 119.966 200.548 L 120.067 194.914 121.264 195.113 C 123.114 195.422,127.516 196.087,127.734 196.091 C 127.842 196.093,127.871 195.156,127.800 194.008 L 127.669 191.922 124.479 191.448 C 119.557 190.718,119.919 191.043,119.962 187.376 C 119.982 185.618,120.113 183.203,120.253 182.009 L 120.508 179.838 125.586 181.059 L 130.664 182.281 130.766 199.344 L 130.868 216.406 132.173 216.406 C 132.892 216.406,134.560 216.519,135.880 216.657 L 138.281 216.908 138.281 193.632 L 138.281 170.356 137.402 169.353 C 136.792 168.657,134.438 167.569,129.688 165.788 C 119.871 162.108,98.596 154.682,97.982 154.721 C 97.695 154.739,89.199 157.877,79.102 161.693 M116.729 166.797 L 132.801 172.461 132.807 174.512 C 132.810 175.640,132.681 176.554,132.520 176.544 C 132.358 176.534,125.020 174.029,116.211 170.978 L 100.195 165.430 100.077 163.144 C 100.012 161.887,100.116 160.920,100.308 160.996 C 100.500 161.071,107.889 163.682,116.729 166.797 M96.484 163.258 C 96.484 165.620,97.778 164.923,84.884 169.504 C 78.911 171.626,67.543 175.664,59.622 178.478 C 51.701 181.292,45.153 183.594,45.071 183.594 C 44.989 183.594,44.922 182.665,44.922 181.530 L 44.922 179.467 48.535 178.253 C 51.682 177.195,79.677 167.168,91.406 162.898 C 96.713 160.966,96.484 160.950,96.484 163.258 M109.766 177.291 L 114.258 178.373 114.366 184.138 C 114.467 189.506,114.426 189.889,113.780 189.701 C 113.398 189.589,111.108 189.190,108.691 188.814 L 104.297 188.130 104.297 182.151 C 104.297 177.618,104.415 176.176,104.785 176.190 C 105.054 176.200,107.295 176.695,109.766 177.291 M84.428 184.668 C 84.457 188.696,84.509 199.343,84.544 208.327 L 84.608 224.661 82.636 224.395 C 81.551 224.249,80.532 224.051,80.371 223.956 C 80.210 223.860,80.078 213.612,80.078 201.181 L 80.078 178.581 81.738 177.993 C 84.532 177.004,84.370 176.602,84.428 184.668 M73.399 202.878 L 73.438 223.529 72.559 223.293 C 72.075 223.164,71.108 223.055,70.410 223.052 L 69.141 223.047 69.141 202.366 L 69.141 181.686 70.996 181.156 C 73.506 180.439,73.354 179.061,73.399 202.878 M62.500 203.088 L 62.500 222.191 60.840 222.001 C 59.927 221.896,58.958 221.742,58.688 221.658 C 58.299 221.538,58.217 217.660,58.297 203.246 L 58.398 184.986 59.961 184.515 C 60.820 184.256,61.743 184.031,62.012 184.014 C 62.396 183.991,62.500 188.049,62.500 203.088 M241.211 186.693 C 238.522 187.348,236.334 189.120,234.908 191.797 C 233.669 194.123,233.809 216.688,235.077 219.063 C 237.441 223.492,245.051 225.127,249.061 222.068 L 250.311 221.115 250.554 222.081 C 250.777 222.971,250.976 223.047,253.083 223.047 L 255.369 223.047 255.201 213.379 C 255.108 208.062,254.954 203.755,254.860 203.809 C 254.765 203.862,252.314 203.906,249.414 203.906 L 244.141 203.906 244.141 206.445 L 244.141 208.984 246.484 208.984 L 248.828 208.984 248.828 211.731 C 248.828 216.721,246.845 218.793,243.215 217.595 C 240.647 216.747,240.625 216.641,240.625 204.961 L 240.625 194.471 241.767 193.329 C 244.371 190.725,248.047 192.332,248.047 196.076 L 248.047 198.047 251.563 198.047 C 255.508 198.047,255.308 198.262,254.652 194.713 C 253.430 188.101,248.214 184.989,241.211 186.693 M350.477 186.902 C 347.986 187.680,346.284 189.184,345.050 191.696 L 343.945 193.945 343.945 204.688 C 343.945 217.218,344.091 218.030,346.819 220.759 C 351.330 225.270,361.093 224.400,363.951 219.233 C 366.286 215.010,366.360 195.910,364.058 191.397 C 361.955 187.276,355.802 185.239,350.477 186.902 M153.753 187.035 L 152.232 187.163 152.481 190.359 C 152.618 192.117,152.731 200.190,152.732 208.301 L 152.734 223.047 156.055 223.047 L 159.375 223.047 159.375 215.430 L 159.375 207.813 164.063 207.813 L 168.750 207.813 168.750 204.883 L 168.750 201.953 164.063 201.953 L 159.375 201.953 159.375 197.461 L 159.375 192.969 164.648 192.969 L 169.922 192.969 169.922 190.039 L 169.922 187.109 164.160 187.067 C 160.991 187.044,157.695 186.998,156.836 186.966 C 155.977 186.933,154.589 186.964,153.753 187.035 M173.438 204.850 L 173.438 223.047 176.758 223.047 L 180.078 223.047 180.155 218.457 C 180.198 215.933,180.226 212.661,180.217 211.187 L 180.203 208.506 182.123 208.691 C 184.807 208.949,184.943 209.183,186.604 216.406 L 188.086 222.852 191.667 222.963 L 195.248 223.075 193.557 216.460 C 191.619 208.877,191.432 208.438,189.763 207.575 L 188.533 206.939 190.014 206.430 C 193.518 205.225,194.535 203.110,194.512 197.070 C 194.478 188.341,192.810 187.079,180.957 186.818 L 173.438 186.653 173.438 204.850 M222.401 197.239 C 222.538 202.947,222.651 211.089,222.653 215.332 L 222.656 223.047 225.879 223.047 L 229.102 223.047 229.005 205.064 L 228.907 187.081 225.529 186.970 L 222.151 186.860 222.401 197.239 M259.766 204.936 L 259.766 223.047 263.086 223.047 L 266.406 223.047 266.406 215.625 L 266.406 208.203 270.109 208.203 L 273.811 208.203 273.917 215.527 L 274.023 222.852 277.246 222.965 L 280.469 223.078 280.469 204.996 L 280.469 186.914 277.148 186.914 L 273.828 186.914 273.828 194.644 L 273.828 202.373 270.215 202.261 L 266.602 202.148 266.531 200.000 C 266.492 198.818,266.448 195.338,266.433 192.265 L 266.406 186.679 263.086 186.752 L 259.766 186.825 259.766 204.936 M312.688 187.194 C 312.516 187.652,311.413 192.471,306.428 214.545 C 305.471 218.785,304.688 222.433,304.688 222.651 C 304.688 222.887,306.009 223.047,307.964 223.047 L 311.241 223.047 311.494 221.582 C 311.634 220.776,311.929 219.194,312.151 218.066 L 312.555 216.016 316.750 216.016 L 320.945 216.016 321.658 219.531 L 322.372 223.047 325.861 223.047 C 329.070 223.047,329.331 222.989,329.122 222.329 C 328.900 221.630,327.758 216.443,325.367 205.273 C 324.723 202.266,323.542 196.904,322.743 193.359 L 321.289 186.914 317.083 186.803 C 313.934 186.720,312.829 186.818,312.688 187.194 M332.748 204.199 C 332.712 213.706,332.668 221.792,332.650 222.168 C 332.621 222.761,333.068 222.866,336.035 222.964 L 339.453 223.077 339.453 204.996 L 339.454 186.914 336.134 186.914 L 332.814 186.914 332.748 204.199 M51.953 204.153 L 51.953 221.196 50.488 220.954 C 49.683 220.821,48.760 220.709,48.438 220.706 C 47.928 220.701,47.835 218.589,47.727 204.567 L 47.603 188.435 49.485 187.810 C 50.520 187.466,51.499 187.167,51.660 187.147 C 51.821 187.126,51.953 194.779,51.953 204.153 M199.369 188.184 C 199.466 188.774,199.560 196.860,199.577 206.152 L 199.609 223.047 208.789 223.047 L 217.969 223.047 217.969 220.117 L 217.969 217.188 212.109 217.188 L 206.250 217.188 206.250 212.500 L 206.250 207.813 211.328 207.813 L 216.406 207.813 216.406 204.883 L 216.406 201.953 211.328 201.953 L 206.250 201.953 206.250 197.472 L 206.250 192.990 211.749 192.882 L 217.249 192.773 217.316 189.941 L 217.383 187.109 208.287 187.109 L 199.192 187.109 199.369 188.184 M284.375 190.039 L 284.375 192.969 287.891 192.969 L 291.406 192.969 291.406 208.008 L 291.406 223.047 294.727 223.047 L 298.047 223.047 298.047 208.008 L 298.047 192.969 301.563 192.969 L 305.078 192.969 305.078 190.657 C 305.078 189.385,305.185 188.067,305.315 187.727 C 305.528 187.173,304.459 187.109,294.964 187.109 L 284.375 187.109 284.375 190.039 M357.582 193.389 L 358.594 194.591 358.594 204.894 C 358.594 217.427,358.419 217.969,354.365 217.969 C 350.827 217.969,350.395 216.566,350.395 205.078 C 350.395 193.339,350.783 192.188,354.740 192.188 C 356.305 192.188,356.718 192.362,357.582 193.389 M187.229 193.696 C 187.982 194.449,188.084 194.972,188.085 198.090 C 188.086 202.790,187.405 203.516,182.986 203.516 L 180.078 203.516 180.078 197.997 L 180.078 192.478 183.227 192.660 C 185.794 192.809,186.533 193.000,187.229 193.696 M110.254 193.798 L 114.453 194.281 114.453 200.070 L 114.453 205.859 112.951 205.859 C 112.124 205.859,109.839 205.745,107.873 205.606 L 104.297 205.352 104.297 199.118 L 104.297 192.884 105.176 193.099 C 105.659 193.218,107.944 193.532,110.254 193.798 M318.289 203.272 L 319.746 210.547 316.663 210.547 C 313.920 210.547,313.600 210.472,313.758 209.863 C 313.856 209.487,314.535 206.162,315.267 202.473 C 316.000 198.784,316.651 195.818,316.715 195.882 C 316.779 195.946,317.487 199.271,318.289 203.272 " stroke="none" fill="#e1929b" fill-rule="evenodd"></path><path id="path1" d="M0.000 200.000 L 0.000 400.000 200.000 400.000 L 400.000 400.000 400.000 200.000 L 400.000 0.000 200.000 0.000 L 0.000 0.000 0.000 200.000 M109.019 158.223 C 124.865 163.695,136.305 168.053,137.340 169.012 L 138.281 169.885 138.281 193.145 C 138.281 205.939,138.280 216.526,138.278 216.673 C 138.274 216.970,134.683 216.895,132.129 216.545 L 130.469 216.318 130.469 199.385 L 130.469 182.452 129.004 182.061 C 126.682 181.440,120.928 180.084,120.605 180.081 C 120.444 180.079,120.313 182.432,120.313 185.308 L 120.313 190.538 121.582 190.762 C 122.280 190.886,124.038 191.187,125.488 191.432 L 128.125 191.877 128.125 193.985 C 128.125 196.439,128.124 196.440,123.145 195.566 L 120.313 195.069 120.313 200.617 L 120.313 206.166 124.219 206.445 L 128.125 206.725 128.125 208.849 L 128.125 210.973 124.219 210.704 L 120.313 210.435 120.313 213.771 L 120.313 217.107 117.839 217.538 C 116.479 217.775,115.160 217.969,114.909 217.969 C 114.592 217.969,114.453 216.781,114.453 214.063 L 114.453 210.156 113.184 210.154 C 112.485 210.153,110.244 210.043,108.203 209.910 L 104.492 209.669 104.380 214.875 C 104.318 217.738,104.188 220.161,104.090 220.259 C 103.826 220.523,97.602 221.855,96.582 221.866 L 95.703 221.875 95.703 198.047 C 95.703 180.545,95.586 174.219,95.260 174.219 C 95.017 174.219,94.138 174.422,93.307 174.671 L 91.797 175.124 91.797 200.307 L 91.797 225.491 95.996 225.303 C 99.084 225.165,101.953 224.689,106.836 223.507 C 121.328 219.999,127.667 219.439,138.086 220.750 C 143.381 221.416,143.106 221.235,142.830 223.877 C 142.344 228.529,139.361 233.253,134.181 237.575 C 130.131 240.956,130.298 241.692,135.549 243.577 C 139.148 244.870,143.359 247.743,143.359 248.905 C 143.359 249.077,132.476 249.219,119.174 249.219 L 94.988 249.219 87.240 247.634 C 82.979 246.762,74.570 244.989,68.555 243.695 C 62.539 242.400,54.893 240.757,51.563 240.044 C 44.564 238.543,43.949 238.336,42.249 236.906 C 41.022 235.873,39.615 233.693,39.956 233.352 C 40.124 233.183,61.832 236.828,83.398 240.646 C 98.572 243.332,105.131 243.632,112.646 241.980 C 115.363 241.383,117.509 240.817,117.415 240.722 C 117.320 240.627,112.967 240.307,107.742 240.011 C 96.890 239.397,95.473 239.199,65.953 234.181 C 41.787 230.072,42.545 230.269,41.314 227.772 L 40.430 225.977 40.318 201.401 C 40.257 187.884,40.351 176.681,40.527 176.504 C 40.902 176.129,48.612 173.119,68.359 165.638 C 76.201 162.668,85.869 158.999,89.844 157.486 C 98.743 154.099,96.869 154.027,109.019 158.223 M88.672 164.037 C 80.624 166.962,46.594 179.116,45.751 179.366 C 45.045 179.575,44.900 183.204,45.598 183.203 C 45.862 183.203,46.741 182.946,47.551 182.632 C 48.361 182.318,54.561 180.099,61.328 177.702 C 89.350 167.776,94.382 165.986,95.313 165.611 C 96.192 165.257,96.944 161.193,96.097 161.369 C 95.988 161.392,92.646 162.593,88.672 164.037 M100.057 163.226 C 99.977 165.483,97.717 164.442,117.531 171.273 C 134.016 176.956,132.892 176.727,132.736 174.377 L 132.617 172.582 116.657 166.955 C 98.067 160.401,100.140 160.866,100.057 163.226 M104.592 182.134 L 104.691 188.086 107.717 188.544 C 109.381 188.797,111.577 189.127,112.598 189.278 L 114.453 189.554 114.453 184.067 L 114.453 178.581 110.059 177.559 C 107.642 176.996,105.400 176.456,105.078 176.359 C 104.572 176.205,104.506 176.994,104.592 182.134 M82.092 178.091 C 81.159 178.432,80.412 178.843,80.432 179.004 C 80.452 179.165,80.469 189.387,80.469 201.720 L 80.469 224.143 82.422 224.279 L 84.375 224.414 84.375 201.097 C 84.375 188.273,84.243 177.711,84.082 177.626 C 83.921 177.541,83.025 177.750,82.092 178.091 M70.605 181.368 L 69.141 181.778 69.141 202.172 L 69.141 222.565 70.020 222.801 C 70.503 222.930,71.382 223.039,71.973 223.042 L 73.047 223.047 73.047 201.953 C 73.047 185.312,72.944 180.870,72.559 180.909 C 72.290 180.936,71.411 181.143,70.605 181.368 M60.254 184.665 L 58.594 185.221 58.594 203.311 C 58.594 223.339,58.391 221.875,61.165 221.875 L 62.500 221.875 62.471 204.590 C 62.455 195.083,62.323 186.585,62.178 185.706 L 61.914 184.108 60.254 184.665 M248.483 186.725 C 252.062 187.719,254.477 191.030,254.938 195.576 L 255.183 197.989 251.614 198.115 L 248.045 198.242 248.040 196.680 C 248.030 193.377,246.143 191.698,243.373 192.528 C 240.786 193.303,240.625 194.036,240.625 205.007 C 240.625 216.826,240.880 217.578,244.888 217.578 C 247.854 217.578,249.178 215.167,248.586 210.840 L 248.359 209.180 246.250 209.313 L 244.141 209.447 244.141 206.726 L 244.141 204.004 245.361 203.760 C 246.033 203.625,248.582 203.516,251.025 203.516 L 255.469 203.516 255.469 213.300 L 255.469 223.084 253.043 222.968 C 250.866 222.863,250.596 222.758,250.403 221.935 L 250.189 221.019 249.461 221.824 C 245.702 225.976,236.165 223.368,234.332 217.686 C 233.654 215.584,233.396 198.409,233.990 194.886 C 235.132 188.119,241.201 184.702,248.483 186.725 M359.117 186.953 C 361.376 187.723,363.466 189.697,364.584 192.115 C 365.749 194.637,366.099 213.404,365.048 217.020 C 362.603 225.428,348.821 226.418,344.873 218.468 C 343.468 215.641,343.427 194.607,344.820 191.780 C 347.178 186.995,353.236 184.949,359.117 186.953 M169.954 186.880 C 170.044 186.968,170.059 188.375,169.989 190.005 L 169.860 192.969 164.618 192.969 L 159.375 192.969 159.375 197.461 L 159.375 201.953 164.063 201.953 L 168.750 201.953 168.750 204.883 L 168.750 207.813 164.063 207.813 L 159.375 207.813 159.375 215.430 L 159.375 223.047 156.076 223.047 L 152.778 223.047 152.649 217.871 C 152.578 215.024,152.474 206.851,152.418 199.707 L 152.315 186.719 161.054 186.719 C 165.860 186.719,169.865 186.791,169.954 186.880 M190.469 187.582 C 193.765 189.376,194.747 191.719,194.693 197.656 C 194.641 203.266,193.302 205.890,190.173 206.516 L 189.049 206.741 190.437 207.960 C 191.632 209.010,195.313 220.238,195.313 222.835 C 195.313 222.951,193.660 223.047,191.640 223.047 L 187.967 223.047 186.919 218.457 C 184.771 209.046,184.756 209.010,183.008 208.985 C 182.578 208.979,181.831 208.868,181.348 208.738 L 180.469 208.503 180.469 215.775 L 180.469 223.047 176.953 223.047 L 173.438 223.047 173.438 205.501 C 173.438 195.850,173.325 187.661,173.187 187.302 C 172.812 186.323,188.629 186.579,190.469 187.582 M217.578 189.844 L 217.578 192.969 212.109 192.969 L 206.641 192.969 206.641 197.461 L 206.641 201.953 211.523 201.953 L 216.406 201.953 216.406 204.883 L 216.406 207.813 211.523 207.813 L 206.641 207.813 206.641 212.109 C 206.641 214.473,206.597 216.512,206.543 216.641 C 206.489 216.771,209.038 216.851,212.207 216.819 L 217.969 216.761 217.969 219.904 L 217.969 223.047 208.691 223.045 L 199.414 223.043 199.295 204.881 L 199.176 186.719 208.377 186.719 L 217.578 186.719 217.578 189.844 M229.115 204.883 L 229.102 223.047 225.684 223.047 L 222.266 223.047 222.266 204.883 L 222.266 186.719 225.697 186.719 L 229.128 186.719 229.115 204.883 M266.797 194.434 L 266.796 202.148 270.363 202.148 L 273.929 202.148 273.744 194.434 L 273.559 186.719 277.209 186.719 L 280.859 186.719 280.859 204.883 L 280.859 223.047 277.344 223.047 L 273.828 223.047 273.828 215.625 L 273.828 208.203 270.117 208.203 L 266.406 208.203 266.406 215.625 L 266.406 223.047 263.086 223.047 L 259.766 223.047 259.763 207.520 C 259.761 198.979,259.648 190.806,259.511 189.355 L 259.262 186.719 263.029 186.719 L 266.797 186.719 266.797 194.434 M305.469 188.623 C 305.469 189.670,305.359 191.077,305.225 191.748 L 304.980 192.969 301.514 192.969 L 298.047 192.969 298.047 208.008 L 298.047 223.047 294.531 223.047 L 291.016 223.047 291.016 208.008 L 291.016 192.969 287.695 192.969 L 284.375 192.969 284.372 191.895 C 284.370 191.304,284.257 189.897,284.122 188.770 L 283.876 186.719 294.672 186.719 L 305.469 186.719 305.469 188.623 M321.830 188.574 C 322.911 193.307,329.297 222.645,329.297 222.879 C 329.297 222.971,327.727 223.047,325.808 223.047 L 322.319 223.047 321.677 220.020 C 321.323 218.354,320.965 216.772,320.881 216.504 C 320.771 216.155,319.575 216.016,316.676 216.016 L 312.625 216.016 312.142 218.848 C 311.363 223.418,311.751 223.047,307.760 223.047 C 304.593 223.047,304.265 222.979,304.451 222.363 C 304.565 221.987,305.287 218.867,306.054 215.430 C 306.822 211.992,308.222 205.840,309.165 201.758 C 310.108 197.676,311.259 192.622,311.722 190.527 L 312.564 186.719 316.985 186.719 L 321.406 186.719 321.830 188.574 M339.712 195.215 C 339.570 199.888,339.455 208.062,339.454 213.379 L 339.453 223.047 335.936 223.047 L 332.418 223.047 332.518 204.884 L 332.617 186.721 336.293 186.720 L 339.968 186.719 339.712 195.215 M49.316 187.987 L 48.047 188.394 48.047 204.509 L 48.047 220.624 49.805 220.764 L 51.563 220.904 51.563 204.202 C 51.563 191.080,51.458 187.509,51.074 187.540 C 50.806 187.562,50.015 187.763,49.316 187.987 M352.486 192.644 C 350.929 193.398,350.781 194.493,350.781 205.270 L 350.781 215.581 351.724 216.677 C 352.994 218.154,356.126 218.266,357.509 216.884 C 358.672 215.722,359.119 196.936,358.045 194.365 C 357.216 192.381,354.662 191.591,352.486 192.644 M180.350 198.144 L 180.427 203.320 182.099 203.445 C 186.712 203.788,187.891 202.763,187.891 198.412 C 187.891 193.520,187.428 192.983,183.203 192.974 L 180.273 192.968 180.350 198.144 M104.523 199.217 C 104.559 206.166,103.869 205.312,109.668 205.591 L 114.453 205.821 114.453 200.194 L 114.453 194.567 113.184 194.358 C 111.021 194.004,105.837 193.359,105.148 193.359 C 104.562 193.359,104.495 193.983,104.523 199.217 M316.428 196.680 C 316.397 197.324,315.794 200.708,315.088 204.199 L 313.804 210.547 316.668 210.547 C 318.243 210.547,319.523 210.415,319.513 210.254 C 319.418 208.764,316.471 195.795,316.428 196.680 " stroke="none" fill="#d8ecee" fill-rule="evenodd"></path><path id="path2" d="M40.411 191.016 C 40.411 199.072,40.463 202.368,40.527 198.340 C 40.590 194.312,40.590 187.720,40.527 183.691 C 40.463 179.663,40.411 182.959,40.411 191.016 M91.561 183.594 C 91.561 186.709,91.622 187.983,91.696 186.426 C 91.770 184.868,91.770 182.319,91.696 180.762 C 91.622 179.204,91.561 180.479,91.561 183.594 M73.178 184.766 C 73.178 186.377,73.247 187.036,73.331 186.230 C 73.416 185.425,73.416 184.106,73.331 183.301 C 73.247 182.495,73.178 183.154,73.178 184.766 M130.575 184.375 C 130.575 185.342,130.651 185.737,130.744 185.254 C 130.838 184.771,130.838 183.979,130.744 183.496 C 130.651 183.013,130.575 183.408,130.575 184.375 M120.020 184.570 C 120.025 185.430,120.105 185.735,120.198 185.249 C 120.292 184.763,120.288 184.060,120.190 183.687 C 120.092 183.313,120.016 183.711,120.020 184.570 M80.260 203.711 C 80.260 214.883,80.310 219.397,80.371 213.742 C 80.432 208.087,80.432 198.947,80.371 193.430 C 80.310 187.912,80.260 192.539,80.260 203.711 M120.043 188.477 C 120.045 189.766,120.118 190.246,120.205 189.544 C 120.292 188.842,120.290 187.787,120.201 187.200 C 120.112 186.613,120.041 187.188,120.043 188.477 M58.383 204.102 C 58.383 213.770,58.434 217.669,58.496 212.766 C 58.558 207.864,58.558 199.954,58.496 195.188 C 58.434 190.423,58.383 194.434,58.383 204.102 M153.032 186.995 C 153.518 187.088,154.221 187.085,154.594 186.987 C 154.968 186.889,154.570 186.813,153.711 186.817 C 152.852 186.822,152.546 186.902,153.032 186.995 M159.863 187.006 C 160.884 187.086,162.554 187.086,163.574 187.006 C 164.595 186.925,163.760 186.860,161.719 186.860 C 159.678 186.860,158.843 186.925,159.863 187.006 M224.902 187.001 C 225.601 187.088,226.743 187.088,227.441 187.001 C 228.140 186.915,227.568 186.844,226.172 186.844 C 224.775 186.844,224.204 186.915,224.902 187.001 M266.561 192.188 C 266.561 195.303,266.622 196.577,266.696 195.020 C 266.770 193.462,266.770 190.913,266.696 189.355 C 266.622 187.798,266.561 189.072,266.561 192.188 M275.694 187.005 C 276.613 187.088,278.019 187.087,278.819 187.003 C 279.619 186.919,278.867 186.851,277.148 186.853 C 275.430 186.854,274.775 186.923,275.694 187.005 M334.473 187.003 C 335.278 187.088,336.597 187.088,337.402 187.003 C 338.208 186.919,337.549 186.850,335.938 186.850 C 334.326 186.850,333.667 186.919,334.473 187.003 M339.590 190.234 C 339.590 192.061,339.657 192.808,339.739 191.895 C 339.821 190.981,339.821 189.487,339.739 188.574 C 339.657 187.661,339.590 188.408,339.590 190.234 M51.709 191.992 C 51.710 194.355,51.774 195.272,51.852 194.029 C 51.929 192.786,51.929 190.852,51.850 189.732 C 51.771 188.612,51.708 189.629,51.709 191.992 M217.278 189.453 C 217.278 190.205,217.359 190.513,217.457 190.137 C 217.555 189.761,217.555 189.146,217.457 188.770 C 217.359 188.394,217.278 188.701,217.278 189.453 M229.023 190.625 C 229.023 191.807,229.097 192.290,229.186 191.699 C 229.276 191.108,229.276 190.142,229.186 189.551 C 229.097 188.960,229.023 189.443,229.023 190.625 M47.807 193.750 C 47.807 196.436,47.869 197.534,47.945 196.191 C 48.022 194.849,48.022 192.651,47.945 191.309 C 47.869 189.966,47.807 191.064,47.807 193.750 M199.317 190.430 C 199.322 191.289,199.402 191.595,199.495 191.109 C 199.588 190.623,199.585 189.920,199.487 189.546 C 199.389 189.173,199.313 189.570,199.317 190.430 M91.513 191.016 C 91.513 191.982,91.589 192.378,91.682 191.895 C 91.775 191.411,91.775 190.620,91.682 190.137 C 91.589 189.653,91.513 190.049,91.513 191.016 M152.491 195.703 C 152.491 198.174,152.555 199.185,152.632 197.949 C 152.710 196.714,152.710 194.692,152.632 193.457 C 152.555 192.222,152.491 193.232,152.491 195.703 M127.851 193.750 C 127.851 194.932,127.925 195.415,128.014 194.824 C 128.104 194.233,128.104 193.267,128.014 192.676 C 127.925 192.085,127.851 192.568,127.851 193.750 M181.941 192.861 C 182.643 192.948,183.697 192.946,184.284 192.857 C 184.871 192.768,184.297 192.697,183.008 192.699 C 181.719 192.701,181.238 192.774,181.941 192.861 M91.497 196.875 C 91.497 197.627,91.577 197.935,91.676 197.559 C 91.774 197.183,91.774 196.567,91.676 196.191 C 91.577 195.815,91.497 196.123,91.497 196.875 M51.736 208.398 C 51.736 215.059,51.789 217.838,51.855 214.575 C 51.920 211.312,51.920 205.863,51.855 202.466 C 51.790 199.069,51.736 201.738,51.736 208.398 M120.074 201.367 C 120.074 204.160,120.137 205.251,120.212 203.792 C 120.287 202.333,120.287 200.048,120.211 198.714 C 120.135 197.380,120.073 198.574,120.074 201.367 M233.761 205.664 C 233.762 210.605,233.818 212.573,233.886 210.037 C 233.954 207.500,233.954 203.457,233.885 201.052 C 233.817 198.647,233.761 200.723,233.761 205.664 M266.523 200.000 C 266.523 201.182,266.597 201.665,266.686 201.074 C 266.776 200.483,266.776 199.517,266.686 198.926 C 266.597 198.335,266.523 198.818,266.523 200.000 M47.790 202.930 C 47.792 204.648,47.860 205.303,47.943 204.384 C 48.025 203.465,48.024 202.059,47.940 201.259 C 47.856 200.459,47.789 201.211,47.790 202.930 M222.438 212.109 C 222.438 218.232,222.492 220.737,222.558 217.676 C 222.624 214.614,222.624 209.604,222.558 206.543 C 222.492 203.481,222.438 205.986,222.438 212.109 M84.481 204.297 C 84.481 205.264,84.558 205.659,84.651 205.176 C 84.744 204.692,84.744 203.901,84.651 203.418 C 84.558 202.935,84.481 203.330,84.481 204.297 M251.074 203.798 C 251.772 203.885,252.915 203.885,253.613 203.798 C 254.312 203.712,253.740 203.641,252.344 203.641 C 250.947 203.641,250.376 203.712,251.074 203.798 M255.230 209.180 C 255.231 211.973,255.293 213.064,255.368 211.605 C 255.444 210.146,255.443 207.861,255.367 206.527 C 255.291 205.193,255.229 206.387,255.230 209.180 M291.141 206.641 C 291.141 208.037,291.212 208.608,291.298 207.910 C 291.385 207.212,291.385 206.069,291.298 205.371 C 291.212 204.673,291.141 205.244,291.141 206.641 M127.833 208.789 C 127.837 209.648,127.917 209.954,128.011 209.468 C 128.104 208.982,128.101 208.279,128.003 207.906 C 127.905 207.532,127.829 207.930,127.833 208.789 M91.573 216.992 C 91.573 221.719,91.629 223.599,91.698 221.170 C 91.767 218.741,91.766 214.874,91.698 212.576 C 91.629 210.278,91.572 212.266,91.573 216.992 M40.325 210.938 C 40.325 211.689,40.405 211.997,40.504 211.621 C 40.602 211.245,40.602 210.630,40.504 210.254 C 40.405 209.878,40.325 210.186,40.325 210.938 M111.426 210.035 C 111.802 210.133,112.417 210.133,112.793 210.035 C 113.169 209.937,112.861 209.856,112.109 209.856 C 111.357 209.856,111.050 209.937,111.426 210.035 M291.127 211.914 C 291.130 212.988,291.206 213.381,291.296 212.788 C 291.386 212.194,291.383 211.315,291.291 210.834 C 291.198 210.354,291.124 210.840,291.127 211.914 M84.496 215.430 C 84.498 216.719,84.571 217.199,84.658 216.497 C 84.745 215.795,84.743 214.740,84.654 214.153 C 84.565 213.566,84.494 214.141,84.496 215.430 M180.227 218.555 C 180.228 221.133,180.291 222.137,180.368 220.785 C 180.444 219.434,180.444 217.325,180.366 216.098 C 180.289 214.871,180.226 215.977,180.227 218.555 M255.190 216.211 C 255.193 217.285,255.269 217.678,255.358 217.084 C 255.448 216.491,255.446 215.612,255.353 215.131 C 255.260 214.651,255.187 215.137,255.190 216.211 M291.137 216.602 C 291.139 217.891,291.212 218.371,291.299 217.669 C 291.386 216.967,291.384 215.912,291.295 215.325 C 291.206 214.738,291.134 215.313,291.137 216.602 M332.543 219.336 C 332.545 220.625,332.618 221.105,332.705 220.403 C 332.792 219.701,332.790 218.646,332.701 218.059 C 332.612 217.472,332.541 218.047,332.543 219.336 M102.647 243.255 C 103.566 243.338,104.972 243.337,105.772 243.253 C 106.572 243.169,105.820 243.101,104.102 243.103 C 102.383 243.104,101.728 243.173,102.647 243.255 " stroke="none" fill="#db8861" fill-rule="evenodd"></path><path id="path3" d="M205.176 187.010 C 207.056 187.081,210.132 187.081,212.012 187.010 C 213.892 186.938,212.354 186.879,208.594 186.879 C 204.834 186.879,203.296 186.938,205.176 187.010 M289.551 187.011 C 292.290 187.078,296.772 187.078,299.512 187.011 C 302.251 186.943,300.010 186.889,294.531 186.889 C 289.053 186.889,286.812 186.943,289.551 187.011 M130.597 192.383 C 130.599 193.887,130.669 194.454,130.754 193.644 C 130.838 192.833,130.837 191.603,130.751 190.909 C 130.664 190.216,130.595 190.879,130.597 192.383 M73.221 203.125 C 73.221 210.107,73.274 212.964,73.339 209.473 C 73.404 205.981,73.404 200.269,73.339 196.777 C 73.274 193.286,73.221 196.143,73.221 203.125 M280.559 198.047 C 280.559 198.799,280.640 199.106,280.738 198.730 C 280.836 198.354,280.836 197.739,280.738 197.363 C 280.640 196.987,280.559 197.295,280.559 198.047 M152.442 201.367 C 152.447 202.227,152.527 202.532,152.620 202.046 C 152.713 201.560,152.710 200.857,152.612 200.484 C 152.514 200.110,152.438 200.508,152.442 201.367 M280.567 203.711 C 280.572 204.570,280.652 204.876,280.745 204.390 C 280.838 203.904,280.835 203.201,280.737 202.827 C 280.639 202.454,280.563 202.852,280.567 203.711 M280.575 207.031 C 280.575 207.998,280.651 208.394,280.744 207.910 C 280.838 207.427,280.838 206.636,280.744 206.152 C 280.651 205.669,280.575 206.064,280.575 207.031 M280.586 215.625 C 280.586 216.807,280.659 217.290,280.749 216.699 C 280.838 216.108,280.838 215.142,280.749 214.551 C 280.659 213.960,280.586 214.443,280.586 215.625 M73.186 219.336 C 73.184 221.270,73.250 222.110,73.332 221.203 C 73.414 220.297,73.415 218.715,73.334 217.688 C 73.254 216.661,73.187 217.402,73.186 219.336 M40.341 221.484 C 40.341 222.451,40.417 222.847,40.510 222.363 C 40.603 221.880,40.603 221.089,40.510 220.605 C 40.417 220.122,40.341 220.518,40.341 221.484 " stroke="none" fill="#dc9b83" fill-rule="evenodd"></path><path id="path4" d="M96.192 163.477 C 96.197 164.336,96.277 164.642,96.370 164.156 C 96.463 163.670,96.460 162.967,96.362 162.593 C 96.264 162.220,96.188 162.617,96.192 163.477 M104.447 182.813 C 104.447 185.498,104.510 186.597,104.586 185.254 C 104.662 183.911,104.662 181.714,104.586 180.371 C 104.510 179.028,104.447 180.127,104.447 182.813 M80.169 180.469 C 80.169 181.221,80.249 181.528,80.347 181.152 C 80.446 180.776,80.446 180.161,80.347 179.785 C 80.249 179.409,80.169 179.717,80.169 180.469 M45.020 181.445 C 45.025 182.305,45.105 182.610,45.198 182.124 C 45.292 181.638,45.288 180.935,45.190 180.562 C 45.092 180.188,45.016 180.586,45.020 181.445 M62.208 185.352 C 62.212 186.211,62.292 186.517,62.386 186.031 C 62.479 185.545,62.476 184.842,62.378 184.468 C 62.280 184.095,62.204 184.492,62.208 185.352 M273.544 188.281 C 273.544 189.248,273.620 189.644,273.713 189.160 C 273.806 188.677,273.806 187.886,273.713 187.402 C 273.620 186.919,273.544 187.314,273.544 188.281 M280.559 191.016 C 280.559 191.768,280.640 192.075,280.738 191.699 C 280.836 191.323,280.836 190.708,280.738 190.332 C 280.640 189.956,280.559 190.264,280.559 191.016 M199.371 197.852 C 199.371 200.645,199.433 201.736,199.509 200.277 C 199.584 198.818,199.584 196.532,199.508 195.199 C 199.432 193.865,199.370 195.059,199.371 197.852 M206.398 197.656 C 206.398 200.127,206.461 201.138,206.539 199.902 C 206.616 198.667,206.616 196.646,206.539 195.410 C 206.461 194.175,206.398 195.186,206.398 197.656 M339.565 196.289 C 339.568 197.363,339.644 197.756,339.733 197.163 C 339.823 196.569,339.821 195.690,339.728 195.209 C 339.635 194.729,339.562 195.215,339.565 196.289 M194.652 197.070 C 194.654 198.359,194.727 198.840,194.814 198.138 C 194.901 197.435,194.899 196.381,194.810 195.794 C 194.721 195.207,194.650 195.781,194.652 197.070 M104.428 198.047 C 104.428 199.658,104.497 200.317,104.581 199.512 C 104.666 198.706,104.666 197.388,104.581 196.582 C 104.497 195.776,104.428 196.436,104.428 198.047 M180.221 199.023 C 180.222 201.172,180.287 202.001,180.367 200.866 C 180.446 199.731,180.445 197.973,180.365 196.960 C 180.285 195.946,180.220 196.875,180.221 199.023 M350.555 205.078 C 350.555 209.482,350.612 211.284,350.682 209.082 C 350.752 206.880,350.752 203.276,350.682 201.074 C 350.612 198.872,350.555 200.674,350.555 205.078 M130.610 204.688 C 130.610 206.729,130.675 207.563,130.756 206.543 C 130.836 205.522,130.836 203.853,130.756 202.832 C 130.675 201.812,130.610 202.646,130.610 204.688 M269.425 202.235 C 270.118 202.321,271.349 202.323,272.159 202.238 C 272.970 202.154,272.402 202.083,270.898 202.081 C 269.395 202.080,268.731 202.149,269.425 202.235 M152.494 207.422 C 152.494 210.107,152.557 211.206,152.633 209.863 C 152.709 208.521,152.709 206.323,152.633 204.980 C 152.557 203.638,152.494 204.736,152.494 207.422 M246.391 203.792 C 246.877 203.885,247.580 203.882,247.954 203.784 C 248.327 203.686,247.930 203.610,247.070 203.614 C 246.211 203.618,245.905 203.698,246.391 203.792 M206.398 212.109 C 206.398 214.580,206.461 215.591,206.539 214.355 C 206.616 213.120,206.616 211.099,206.539 209.863 C 206.461 208.628,206.398 209.639,206.398 212.109 M332.543 210.352 C 332.545 211.641,332.618 212.121,332.705 211.419 C 332.792 210.717,332.790 209.662,332.701 209.075 C 332.612 208.488,332.541 209.063,332.543 210.352 M245.605 209.260 C 246.089 209.353,246.880 209.353,247.363 209.260 C 247.847 209.167,247.451 209.091,246.484 209.091 C 245.518 209.091,245.122 209.167,245.605 209.260 M104.425 212.695 C 104.427 214.199,104.497 214.767,104.582 213.956 C 104.667 213.146,104.665 211.915,104.579 211.222 C 104.493 210.528,104.423 211.191,104.425 212.695 M130.603 213.086 C 130.604 214.805,130.673 215.459,130.755 214.540 C 130.838 213.622,130.837 212.215,130.753 211.415 C 130.669 210.615,130.601 211.367,130.603 213.086 M209.456 217.086 C 210.896 217.161,213.357 217.162,214.924 217.087 C 216.491 217.013,215.313 216.952,212.305 216.951 C 209.297 216.950,208.015 217.011,209.456 217.086 M280.594 219.922 C 280.594 221.318,280.665 221.890,280.751 221.191 C 280.838 220.493,280.838 219.351,280.751 218.652 C 280.665 217.954,280.594 218.525,280.594 219.922 M128.019 220.204 C 128.712 220.290,129.943 220.292,130.753 220.207 C 131.563 220.122,130.996 220.052,129.492 220.050 C 127.988 220.048,127.325 220.118,128.019 220.204 " stroke="none" fill="#eaae8d" fill-rule="evenodd"></path></g></svg>